<svg width="415" height="70" viewBox="0 0 415 70" fill="none" xmlns="http://www.w3.org/2000/svg">
<mask id="path-1-outside-1_732_122" maskUnits="userSpaceOnUse" x="0" y="0" width="416" height="70" fill="black">
<rect fill="white" width="416" height="70"/>
<path d="M1 68.427V1.57303H6.82167L37.3616 53.7191H34.3076L64.5612 1.57303H70.3829V68.427H63.6068V12.1742H65.2293L37.3616 59.927H34.0213L5.96274 12.1742H7.77604V68.427H1Z"/>
<path d="M94.1383 68.427V1.57303H101.201V68.427H94.1383Z"/>
<path d="M143.345 69C138.382 69 133.61 68.2041 129.029 66.6124C124.512 64.9569 121.013 62.8558 118.531 60.309L121.299 54.8652C123.653 57.1573 126.802 59.0993 130.747 60.691C134.756 62.2191 138.955 62.9831 143.345 62.9831C147.544 62.9831 150.948 62.4738 153.557 61.4551C156.229 60.3727 158.169 58.9401 159.378 57.1573C160.651 55.3745 161.287 53.4007 161.287 51.236C161.287 48.6255 160.524 46.5243 158.997 44.9326C157.533 43.3408 155.593 42.0992 153.175 41.2079C150.757 40.2528 148.085 39.4251 145.158 38.7247C142.231 38.0243 139.305 37.2921 136.378 36.5281C133.451 35.7004 130.747 34.618 128.266 33.2809C125.848 31.9438 123.876 30.1929 122.349 28.0281C120.885 25.7996 120.154 22.9026 120.154 19.3371C120.154 16.0262 121.013 13.0019 122.73 10.264C124.512 7.46254 127.216 5.23408 130.843 3.57865C134.469 1.85955 139.114 1 144.776 1C148.53 1 152.252 1.5412 155.943 2.6236C159.633 3.64232 162.814 5.0749 165.486 6.92135L163.1 12.5562C160.237 10.6461 157.183 9.24532 153.938 8.35393C150.757 7.46255 147.671 7.01686 144.681 7.01686C140.673 7.01686 137.364 7.55805 134.756 8.64045C132.147 9.72285 130.206 11.1873 128.934 13.0337C127.725 14.8165 127.121 16.8539 127.121 19.1461C127.121 21.7566 127.852 23.8577 129.316 25.4494C130.843 27.0412 132.815 28.2828 135.233 29.1742C137.714 30.0655 140.418 30.8614 143.345 31.5618C146.272 32.2622 149.167 33.0262 152.03 33.8539C154.956 34.6816 157.629 35.764 160.046 37.1011C162.528 38.3745 164.5 40.0936 165.964 42.2584C167.49 44.4232 168.254 47.2566 168.254 50.7584C168.254 54.0056 167.363 57.03 165.582 59.8315C163.8 62.5693 161.064 64.7977 157.374 66.5169C153.748 68.1723 149.071 69 143.345 69Z"/>
<path d="M204.049 69C199.087 69 194.315 68.2041 189.734 66.6124C185.216 64.9569 181.717 62.8558 179.236 60.309L182.003 54.8652C184.358 57.1573 187.507 59.0993 191.452 60.691C195.46 62.2191 199.659 62.9831 204.049 62.9831C208.249 62.9831 211.653 62.4738 214.261 61.4551C216.933 60.3727 218.874 58.9401 220.083 57.1573C221.355 55.3745 221.992 53.4007 221.992 51.236C221.992 48.6255 221.228 46.5243 219.701 44.9326C218.238 43.3408 216.297 42.0992 213.879 41.2079C211.462 40.2528 208.789 39.4251 205.863 38.7247C202.936 38.0243 200.009 37.2921 197.083 36.5281C194.156 35.7004 191.452 34.618 188.97 33.2809C186.553 31.9438 184.58 30.1929 183.053 28.0281C181.59 25.7996 180.858 22.9026 180.858 19.3371C180.858 16.0262 181.717 13.0019 183.435 10.264C185.216 7.46254 187.921 5.23408 191.547 3.57865C195.174 1.85955 199.818 1 205.481 1C209.235 1 212.957 1.5412 216.647 2.6236C220.337 3.64232 223.519 5.0749 226.191 6.92135L223.805 12.5562C220.942 10.6461 217.888 9.24532 214.643 8.35393C211.462 7.46255 208.376 7.01686 205.386 7.01686C201.377 7.01686 198.069 7.55805 195.46 8.64045C192.851 9.72285 190.911 11.1873 189.638 13.0337C188.43 14.8165 187.825 16.8539 187.825 19.1461C187.825 21.7566 188.557 23.8577 190.02 25.4494C191.547 27.0412 193.52 28.2828 195.937 29.1742C198.419 30.0655 201.123 30.8614 204.049 31.5618C206.976 32.2622 209.871 33.0262 212.734 33.8539C215.661 34.6816 218.333 35.764 220.751 37.1011C223.232 38.3745 225.205 40.0936 226.668 42.2584C228.195 44.4232 228.959 47.2566 228.959 50.7584C228.959 54.0056 228.068 57.03 226.286 59.8315C224.505 62.5693 221.769 64.7977 218.079 66.5169C214.452 68.1723 209.776 69 204.049 69Z"/>
<path d="M246.335 68.427V1.57303H253.397V68.427H246.335Z"/>
<path d="M306.326 69C301.299 69 296.623 68.1723 292.296 66.5169C288.033 64.7977 284.311 62.4101 281.13 59.3539C278.013 56.2341 275.563 52.6367 273.781 48.5618C272.064 44.4232 271.205 39.9026 271.205 35C271.205 30.0974 272.064 25.6086 273.781 21.5337C275.563 17.3951 278.013 13.7978 281.13 10.7416C284.311 7.62172 288.033 5.23408 292.296 3.57865C296.559 1.85955 301.236 1 306.326 1C311.352 1 315.997 1.85955 320.259 3.57865C324.522 5.23408 328.213 7.58989 331.33 10.6461C334.511 13.7022 336.961 17.2996 338.679 21.4382C340.46 25.5768 341.351 30.0974 341.351 35C341.351 39.9026 340.46 44.4232 338.679 48.5618C336.961 52.7004 334.511 56.2977 331.33 59.3539C328.213 62.4101 324.522 64.7977 320.259 66.5169C315.997 68.1723 311.352 69 306.326 69ZM306.326 62.6966C310.334 62.6966 314.024 62.0281 317.396 60.691C320.832 59.2903 323.791 57.3483 326.272 54.8652C328.817 52.3183 330.789 49.3895 332.189 46.0786C333.589 42.7041 334.289 39.0112 334.289 35C334.289 30.9888 333.589 27.3277 332.189 24.0169C330.789 20.6423 328.817 17.7135 326.272 15.2303C323.791 12.6835 320.832 10.7416 317.396 9.40449C314.024 8.00374 310.334 7.30337 306.326 7.30337C302.317 7.30337 298.595 8.00374 295.159 9.40449C291.724 10.7416 288.733 12.6835 286.188 15.2303C283.707 17.7135 281.735 20.6423 280.271 24.0169C278.871 27.3277 278.172 30.9888 278.172 35C278.172 38.9476 278.871 42.6086 280.271 45.9831C281.735 49.3577 283.707 52.3183 286.188 54.8652C288.733 57.3483 291.724 59.2903 295.159 60.691C298.595 62.0281 302.317 62.6966 306.326 62.6966Z"/>
<path d="M359.169 68.427V1.57303H364.991L411.087 59.6404H408.033V1.57303H415V68.427H409.178L363.178 10.3595H366.232V68.427H359.169Z"/>
</mask>
<path d="M1 68.427V1.57303H6.82167L37.3616 53.7191H34.3076L64.5612 1.57303H70.3829V68.427H63.6068V12.1742H65.2293L37.3616 59.927H34.0213L5.96274 12.1742H7.77604V68.427H1Z" stroke="#3C3F44" stroke-width="2" mask="url(#path-1-outside-1_732_122)"/>
<path d="M94.1383 68.427V1.57303H101.201V68.427H94.1383Z" stroke="#3C3F44" stroke-width="2" mask="url(#path-1-outside-1_732_122)"/>
<path d="M143.345 69C138.382 69 133.61 68.2041 129.029 66.6124C124.512 64.9569 121.013 62.8558 118.531 60.309L121.299 54.8652C123.653 57.1573 126.802 59.0993 130.747 60.691C134.756 62.2191 138.955 62.9831 143.345 62.9831C147.544 62.9831 150.948 62.4738 153.557 61.4551C156.229 60.3727 158.169 58.9401 159.378 57.1573C160.651 55.3745 161.287 53.4007 161.287 51.236C161.287 48.6255 160.524 46.5243 158.997 44.9326C157.533 43.3408 155.593 42.0992 153.175 41.2079C150.757 40.2528 148.085 39.4251 145.158 38.7247C142.231 38.0243 139.305 37.2921 136.378 36.5281C133.451 35.7004 130.747 34.618 128.266 33.2809C125.848 31.9438 123.876 30.1929 122.349 28.0281C120.885 25.7996 120.154 22.9026 120.154 19.3371C120.154 16.0262 121.013 13.0019 122.73 10.264C124.512 7.46254 127.216 5.23408 130.843 3.57865C134.469 1.85955 139.114 1 144.776 1C148.53 1 152.252 1.5412 155.943 2.6236C159.633 3.64232 162.814 5.0749 165.486 6.92135L163.1 12.5562C160.237 10.6461 157.183 9.24532 153.938 8.35393C150.757 7.46255 147.671 7.01686 144.681 7.01686C140.673 7.01686 137.364 7.55805 134.756 8.64045C132.147 9.72285 130.206 11.1873 128.934 13.0337C127.725 14.8165 127.121 16.8539 127.121 19.1461C127.121 21.7566 127.852 23.8577 129.316 25.4494C130.843 27.0412 132.815 28.2828 135.233 29.1742C137.714 30.0655 140.418 30.8614 143.345 31.5618C146.272 32.2622 149.167 33.0262 152.03 33.8539C154.956 34.6816 157.629 35.764 160.046 37.1011C162.528 38.3745 164.5 40.0936 165.964 42.2584C167.49 44.4232 168.254 47.2566 168.254 50.7584C168.254 54.0056 167.363 57.03 165.582 59.8315C163.8 62.5693 161.064 64.7977 157.374 66.5169C153.748 68.1723 149.071 69 143.345 69Z" stroke="#3C3F44" stroke-width="2" mask="url(#path-1-outside-1_732_122)"/>
<path d="M204.049 69C199.087 69 194.315 68.2041 189.734 66.6124C185.216 64.9569 181.717 62.8558 179.236 60.309L182.003 54.8652C184.358 57.1573 187.507 59.0993 191.452 60.691C195.46 62.2191 199.659 62.9831 204.049 62.9831C208.249 62.9831 211.653 62.4738 214.261 61.4551C216.933 60.3727 218.874 58.9401 220.083 57.1573C221.355 55.3745 221.992 53.4007 221.992 51.236C221.992 48.6255 221.228 46.5243 219.701 44.9326C218.238 43.3408 216.297 42.0992 213.879 41.2079C211.462 40.2528 208.789 39.4251 205.863 38.7247C202.936 38.0243 200.009 37.2921 197.083 36.5281C194.156 35.7004 191.452 34.618 188.97 33.2809C186.553 31.9438 184.58 30.1929 183.053 28.0281C181.59 25.7996 180.858 22.9026 180.858 19.3371C180.858 16.0262 181.717 13.0019 183.435 10.264C185.216 7.46254 187.921 5.23408 191.547 3.57865C195.174 1.85955 199.818 1 205.481 1C209.235 1 212.957 1.5412 216.647 2.6236C220.337 3.64232 223.519 5.0749 226.191 6.92135L223.805 12.5562C220.942 10.6461 217.888 9.24532 214.643 8.35393C211.462 7.46255 208.376 7.01686 205.386 7.01686C201.377 7.01686 198.069 7.55805 195.46 8.64045C192.851 9.72285 190.911 11.1873 189.638 13.0337C188.43 14.8165 187.825 16.8539 187.825 19.1461C187.825 21.7566 188.557 23.8577 190.02 25.4494C191.547 27.0412 193.52 28.2828 195.937 29.1742C198.419 30.0655 201.123 30.8614 204.049 31.5618C206.976 32.2622 209.871 33.0262 212.734 33.8539C215.661 34.6816 218.333 35.764 220.751 37.1011C223.232 38.3745 225.205 40.0936 226.668 42.2584C228.195 44.4232 228.959 47.2566 228.959 50.7584C228.959 54.0056 228.068 57.03 226.286 59.8315C224.505 62.5693 221.769 64.7977 218.079 66.5169C214.452 68.1723 209.776 69 204.049 69Z" stroke="#3C3F44" stroke-width="2" mask="url(#path-1-outside-1_732_122)"/>
<path d="M246.335 68.427V1.57303H253.397V68.427H246.335Z" stroke="#3C3F44" stroke-width="2" mask="url(#path-1-outside-1_732_122)"/>
<path d="M306.326 69C301.299 69 296.623 68.1723 292.296 66.5169C288.033 64.7977 284.311 62.4101 281.13 59.3539C278.013 56.2341 275.563 52.6367 273.781 48.5618C272.064 44.4232 271.205 39.9026 271.205 35C271.205 30.0974 272.064 25.6086 273.781 21.5337C275.563 17.3951 278.013 13.7978 281.13 10.7416C284.311 7.62172 288.033 5.23408 292.296 3.57865C296.559 1.85955 301.236 1 306.326 1C311.352 1 315.997 1.85955 320.259 3.57865C324.522 5.23408 328.213 7.58989 331.33 10.6461C334.511 13.7022 336.961 17.2996 338.679 21.4382C340.46 25.5768 341.351 30.0974 341.351 35C341.351 39.9026 340.46 44.4232 338.679 48.5618C336.961 52.7004 334.511 56.2977 331.33 59.3539C328.213 62.4101 324.522 64.7977 320.259 66.5169C315.997 68.1723 311.352 69 306.326 69ZM306.326 62.6966C310.334 62.6966 314.024 62.0281 317.396 60.691C320.832 59.2903 323.791 57.3483 326.272 54.8652C328.817 52.3183 330.789 49.3895 332.189 46.0786C333.589 42.7041 334.289 39.0112 334.289 35C334.289 30.9888 333.589 27.3277 332.189 24.0169C330.789 20.6423 328.817 17.7135 326.272 15.2303C323.791 12.6835 320.832 10.7416 317.396 9.40449C314.024 8.00374 310.334 7.30337 306.326 7.30337C302.317 7.30337 298.595 8.00374 295.159 9.40449C291.724 10.7416 288.733 12.6835 286.188 15.2303C283.707 17.7135 281.735 20.6423 280.271 24.0169C278.871 27.3277 278.172 30.9888 278.172 35C278.172 38.9476 278.871 42.6086 280.271 45.9831C281.735 49.3577 283.707 52.3183 286.188 54.8652C288.733 57.3483 291.724 59.2903 295.159 60.691C298.595 62.0281 302.317 62.6966 306.326 62.6966Z" stroke="#3C3F44" stroke-width="2" mask="url(#path-1-outside-1_732_122)"/>
<path d="M359.169 68.427V1.57303H364.991L411.087 59.6404H408.033V1.57303H415V68.427H409.178L363.178 10.3595H366.232V68.427H359.169Z" stroke="#3C3F44" stroke-width="2" mask="url(#path-1-outside-1_732_122)"/>
</svg>
