<svg width="342" height="70" viewBox="0 0 342 70" fill="none" xmlns="http://www.w3.org/2000/svg">
<path d="M131.229 0.5C135.053 0.50002 138.845 1.04824 142.602 2.14355H142.601C146.354 3.17428 149.605 4.62697 152.345 6.50879L152.683 6.74121L152.522 7.11719L150.122 12.752L149.887 13.3047L149.386 12.9727C146.549 11.0914 143.525 9.71299 140.313 8.83594H140.311C137.15 7.95551 134.09 7.5166 131.132 7.5166C127.14 7.51664 123.882 8.05327 121.338 9.10254C118.78 10.1578 116.915 11.5696 115.702 13.3184C114.548 15.0121 113.967 16.9495 113.967 19.1465C113.967 21.6538 114.67 23.6223 116.035 25.1025L116.316 25.3848C117.75 26.779 119.572 27.8878 121.795 28.7031C124.272 29.5876 126.975 30.3785 129.904 31.0752C132.856 31.7773 135.775 32.5432 138.663 33.373H138.662C141.633 34.2083 144.351 35.3021 146.815 36.6553H146.816C149.379 37.9624 151.427 39.7337 152.949 41.9688C154.562 44.2414 155.347 47.186 155.347 50.7588C155.347 54.1037 154.421 57.2209 152.579 60.1006L152.576 60.1055C150.721 62.9389 147.887 65.2221 144.111 66.9707L144.108 66.9727C140.373 68.6675 135.591 69.5 129.788 69.5C124.742 69.5 119.886 68.6953 115.224 67.085L115.216 67.082C110.625 65.4097 107.032 63.2748 104.469 60.6592L104.217 60.4014L104.381 60.0811L107.165 54.6377L107.473 54.0361L107.958 54.5059C110.268 56.7417 113.377 58.6521 117.302 60.2266H117.301C121.273 61.7305 125.434 62.4834 129.788 62.4834C133.975 62.4834 137.33 61.9777 139.874 60.9912C142.501 59.9334 144.361 58.5533 145.505 56.876L145.511 56.8652H145.512C146.731 55.1664 147.338 53.2946 147.338 51.2363C147.338 48.7306 146.604 46.7623 145.174 45.2803L145.166 45.2725C143.757 43.7492 141.877 42.5471 139.505 41.6777L139.494 41.6738V41.6729C137.087 40.7277 134.422 39.9067 131.497 39.2109C128.55 38.5098 125.602 37.7766 122.654 37.0117L122.645 37.0098C119.668 36.173 116.913 35.0772 114.383 33.7217L114.378 33.7188C111.883 32.347 109.841 30.5465 108.259 28.3174L108.249 28.3037C106.708 25.9703 105.958 22.9683 105.958 19.3369C105.958 15.9339 106.848 12.8166 108.628 9.99707L108.629 9.99414C110.482 7.09764 113.283 4.81276 116.998 3.12598L117.711 2.80664C121.333 1.26088 125.846 0.5 131.229 0.5ZM232.676 0.5C237.79 0.5 242.526 1.36934 246.879 3.11426H246.878C251.222 4.792 254.99 7.18157 258.175 10.2842C261.424 13.3871 263.926 17.0406 265.681 21.2393C267.502 25.4458 268.411 30.035 268.411 35C268.411 39.965 267.503 44.5542 265.682 48.7607L265.681 48.7598C263.926 52.9588 261.424 56.6127 258.175 59.7158C254.99 62.8183 251.223 65.2391 246.879 66.9805L246.873 66.9834C242.522 68.6631 237.788 69.5 232.676 69.5C227.564 69.5 222.799 68.6632 218.385 66.9844L218.377 66.9814V66.9805C214.032 65.2387 210.233 62.8179 206.984 59.7158L206.977 59.708V59.707C203.796 56.5431 201.296 52.894 199.479 48.7627L199.476 48.7549C197.72 44.5498 196.845 39.9626 196.845 35C196.845 30.0377 197.72 25.4818 199.477 21.3389L199.479 21.335C201.296 17.1386 203.796 13.4867 206.98 10.3838C210.229 7.21674 214.03 4.79324 218.377 3.11426L219.198 2.79785C223.328 1.26439 227.822 0.500003 232.676 0.5ZM10.0059 1.07324L10.1377 1.37109L35.4189 58.5195L60.876 1.36914L61.0078 1.07324H69.3037L68.9902 1.77637L39.2275 68.6299L39.0957 68.9268H31.4375L31.3057 68.6299L1.54297 1.77637L1.23047 1.07324H10.0059ZM87.8916 1.07324V68.9268H79.7871V1.07324H87.8916ZM179.931 1.07324V68.9268H171.826V1.07324H179.931ZM291.933 1.07324L292.083 1.26074L334.491 54.3652V1.07324H342.5V68.9268H335.902L335.753 68.7383L293.44 15.6445V68.9268H285.335V1.07324H291.933ZM232.676 7.80371C228.703 7.80371 225.023 8.49351 221.631 9.86816L221.623 9.87109C218.23 11.1839 215.28 13.0883 212.771 15.585C210.322 18.0206 208.373 20.8944 206.925 24.2119L206.926 24.2129C205.547 27.455 204.854 31.0484 204.854 35C204.854 38.8839 205.545 42.4764 206.924 45.7832C208.371 49.0996 210.318 52.006 212.766 54.5059C215.277 56.9419 218.231 58.8489 221.63 60.2266C225.022 61.5379 228.702 62.1963 232.676 62.1963C236.652 62.1963 240.301 61.5373 243.629 60.2256C247.025 58.8485 249.943 56.9432 252.389 54.5107C254.903 52.0093 256.851 49.1341 258.233 45.8828C259.613 42.5758 260.306 38.9503 260.306 35C260.306 31.0483 259.612 27.4551 258.233 24.2129L258.232 24.209C256.85 20.8956 254.904 18.0235 252.394 15.5889L252.384 15.5801V15.5791C249.94 13.0857 247.024 11.1833 243.632 9.87109L243.622 9.86719V9.86621C240.296 8.49281 236.649 7.80371 232.676 7.80371Z" stroke="#3C3F44"/>
</svg>
