<svg width="390" height="658" viewBox="0 0 390 658" fill="none" xmlns="http://www.w3.org/2000/svg">
<g clip-path="url(#clip0_1124_1174)">
<g clip-path="url(#clip1_1124_1174)">
<mask id="mask0_1124_1174" style="mask-type:luminance" maskUnits="userSpaceOnUse" x="-42" y="-1223" width="1193" height="1963">
<path d="M1151 -1223H-42V740H1151V-1223Z" fill="white"/>
</mask>
<g mask="url(#mask0_1124_1174)">
<mask id="mask1_1124_1174" style="mask-type:luminance" maskUnits="userSpaceOnUse" x="-999" y="-328" width="1602" height="877">
<path d="M603 -328H-999V548.81H603V-328Z" fill="white"/>
</mask>
<g mask="url(#mask1_1124_1174)">
<mask id="mask2_1124_1174" style="mask-type:luminance" maskUnits="userSpaceOnUse" x="-1085" y="-430" width="1774" height="1081">
<path d="M493.145 -429.716L-1084.54 -212.967L-889.133 650.526L688.552 433.777L493.139 -429.716H493.145Z" fill="white"/>
</mask>
<g mask="url(#mask2_1124_1174)">
<g opacity="0.4" filter="url(#filter0_f_1124_1174)">
<path fill-rule="evenodd" clip-rule="evenodd" d="M66.6456 -68.4291C165.304 -29.8238 260.964 7.6057 273.611 75.2825C293.493 182.248 136.104 336.184 -36.307 413.626C-160.41 469.354 -286.313 485.663 -389.116 475.786C-619.978 453.544 -734.22 322.251 -742.51 140.493C-747.905 21.0249 -694.614 -65.2485 -617.794 -121.825C-535.258 -182.358 -425.907 -207.696 -335.928 -204.984C-275.184 -203.214 -162.479 -185.57 -80.5851 -135.329C-38.5596 -109.603 14.4612 -88.8528 66.6456 -68.4336V-68.4291ZM-302.32 276.115C-196.438 261.57 -125.746 182.904 -144.414 100.406C-163.083 17.9113 -264.045 -37.1727 -369.927 -22.6278C-475.803 -8.08151 -546.501 70.5875 -527.833 153.082C-509.164 235.58 -408.197 290.66 -302.32 276.115Z" fill="url(#paint0_linear_1124_1174)"/>
</g>
<g filter="url(#filter1_df_1124_1174)">
<path fill-rule="evenodd" clip-rule="evenodd" d="M-269.336 423.503C-73.1721 396.553 108.894 231.238 96.3553 145.93C91.0142 109.557 36.6088 73.9287 -29.2838 30.7764C-51.8386 16.004 -75.7441 0.34993 -99.4936 -16.517C-119.515 -30.7421 -138.406 -47.2427 -157.136 -63.6094C-203.5 -104.11 -248.92 -143.781 -308.202 -146.077C-502.836 -153.62 -692.195 38.6564 -657.606 191.494C-623.016 344.341 -465.495 450.453 -269.336 423.503ZM-295.731 306.871C-172.448 289.932 -90.1295 198.338 -111.87 102.277C-133.608 6.22061 -251.166 -57.9182 -374.454 -40.9789C-497.737 -24.0419 -580.056 67.5586 -558.315 163.615C-536.577 259.671 -419.014 323.81 -295.731 306.871Z" fill="url(#paint1_radial_1124_1174)"/>
</g>
<g filter="url(#filter2_df_1124_1174)">
<path fill-rule="evenodd" clip-rule="evenodd" d="M-269.336 423.503C-73.1721 396.553 108.894 231.238 96.3553 145.93C91.0142 109.557 36.6088 73.9287 -29.2838 30.7764C-51.8386 16.004 -75.7441 0.34993 -99.4936 -16.517C-119.515 -30.7421 -138.406 -47.2427 -157.136 -63.6094C-203.5 -104.11 -248.92 -143.781 -308.202 -146.077C-502.836 -153.62 -692.195 38.6564 -657.606 191.494C-623.016 344.341 -465.495 450.453 -269.336 423.503ZM-295.731 306.871C-172.448 289.932 -90.1295 198.338 -111.87 102.277C-133.608 6.22061 -251.166 -57.9182 -374.454 -40.9789C-497.737 -24.0419 -580.056 67.5586 -558.315 163.615C-536.577 259.671 -419.014 323.81 -295.731 306.871Z" fill="url(#paint2_radial_1124_1174)"/>
</g>
<g filter="url(#filter3_f_1124_1174)">
<path d="M211.262 67.3664C247.449 227.267 -49.6198 396.468 -254.854 424.664C-460.083 452.861 -655.788 346.088 -691.977 186.183C-728.16 26.2779 -591.128 -126.212 -385.9 -154.404C-283.956 -168.409 -163.208 -84.6361 -44.6031 -46.2234C75.5779 -7.30098 193.053 -13.1145 211.268 67.3664H211.262Z" fill="url(#paint3_linear_1124_1174)" fill-opacity="0.97"/>
</g>
</g>
</g>
</g>
</g>
</g>
<defs>
<filter id="filter0_f_1124_1174" x="-930.885" y="-393.18" width="1394.2" height="1059.68" filterUnits="userSpaceOnUse" color-interpolation-filters="sRGB">
<feFlood flood-opacity="0" result="BackgroundImageFix"/>
<feBlend mode="normal" in="SourceGraphic" in2="BackgroundImageFix" result="shape"/>
<feGaussianBlur stdDeviation="94" result="effect1_foregroundBlur_1124_1174"/>
</filter>
<filter id="filter1_df_1124_1174" x="-710.719" y="-195.292" width="856.687" height="671.983" filterUnits="userSpaceOnUse" color-interpolation-filters="sRGB">
<feFlood flood-opacity="0" result="BackgroundImageFix"/>
<feColorMatrix in="SourceAlpha" type="matrix" values="0 0 0 0 0 0 0 0 0 0 0 0 0 0 0 0 0 0 127 0" result="hardAlpha"/>
<feOffset dy="5"/>
<feGaussianBlur stdDeviation="9.5"/>
<feComposite in2="hardAlpha" operator="out"/>
<feColorMatrix type="matrix" values="0 0 0 0 1 0 0 0 0 1 0 0 0 0 1 0 0 0 1 0"/>
<feBlend mode="normal" in2="BackgroundImageFix" result="effect1_dropShadow_1124_1174"/>
<feBlend mode="normal" in="SourceGraphic" in2="effect1_dropShadow_1124_1174" result="shape"/>
<feGaussianBlur stdDeviation="24.5" result="effect2_foregroundBlur_1124_1174"/>
</filter>
<filter id="filter2_df_1124_1174" x="-705.719" y="-192.292" width="846.687" height="661.983" filterUnits="userSpaceOnUse" color-interpolation-filters="sRGB">
<feFlood flood-opacity="0" result="BackgroundImageFix"/>
<feColorMatrix in="SourceAlpha" type="matrix" values="0 0 0 0 0 0 0 0 0 0 0 0 0 0 0 0 0 0 127 0" result="hardAlpha"/>
<feOffset dy="-2"/>
<feGaussianBlur stdDeviation="22"/>
<feComposite in2="hardAlpha" operator="out"/>
<feColorMatrix type="matrix" values="0 0 0 0 0.0195659 0 0 0 0 0.631952 0 0 0 0 0.670833 0 0 0 0.9 0"/>
<feBlend mode="normal" in2="BackgroundImageFix" result="effect1_dropShadow_1124_1174"/>
<feBlend mode="normal" in="SourceGraphic" in2="effect1_dropShadow_1124_1174" result="shape"/>
<feGaussianBlur stdDeviation="7.5" result="effect2_foregroundBlur_1124_1174"/>
</filter>
<filter id="filter3_f_1124_1174" x="-837.771" y="-295.965" width="1192.05" height="865.146" filterUnits="userSpaceOnUse" color-interpolation-filters="sRGB">
<feFlood flood-opacity="0" result="BackgroundImageFix"/>
<feBlend mode="normal" in="SourceGraphic" in2="BackgroundImageFix" result="shape"/>
<feGaussianBlur stdDeviation="70" result="effect1_foregroundBlur_1124_1174"/>
</filter>
<linearGradient id="paint0_linear_1124_1174" x1="144.647" y1="291.053" x2="-668.753" y2="-132.178" gradientUnits="userSpaceOnUse">
<stop stop-color="#2442AB"/>
<stop offset="1" stop-color="#33A8D4"/>
</linearGradient>
<radialGradient id="paint1_radial_1124_1174" cx="0" cy="0" r="1" gradientUnits="userSpaceOnUse" gradientTransform="translate(-287.597 136.446) rotate(77.3013) scale(287.918 372.601)">
<stop stop-color="#D59F42"/>
<stop offset="0.28125" stop-color="#FEA568"/>
<stop offset="0.52083" stop-color="#E6AB4F"/>
<stop offset="0.76562" stop-color="#7E9485"/>
<stop offset="1" stop-color="#D59F42"/>
</radialGradient>
<radialGradient id="paint2_radial_1124_1174" cx="0" cy="0" r="1" gradientUnits="userSpaceOnUse" gradientTransform="translate(-287.597 136.446) rotate(77.3013) scale(287.918 372.601)">
<stop stop-color="#D59F42"/>
<stop offset="0.28125" stop-color="#FDB07B"/>
<stop offset="0.52083" stop-color="#F3D3A1"/>
<stop offset="0.76562" stop-color="#7E9485"/>
<stop offset="1" stop-color="#D59F42"/>
</radialGradient>
<linearGradient id="paint3_linear_1124_1174" x1="242.439" y1="68.8808" x2="-674.479" y2="267.002" gradientUnits="userSpaceOnUse">
<stop stop-color="#02226C"/>
<stop offset="0.16591" stop-color="#164787"/>
<stop offset="0.30769" stop-color="#347068"/>
<stop offset="0.50238" stop-color="#FDE14D"/>
</linearGradient>
<clipPath id="clip0_1124_1174">
<rect width="390" height="781" fill="white" transform="translate(0 -123)"/>
</clipPath>
<clipPath id="clip1_1124_1174">
<rect width="434" height="896" fill="white" transform="translate(-42 -156)"/>
</clipPath>
</defs>
</svg>
