<svg width="1040" height="1103" viewBox="0 0 1040 1103" fill="none" xmlns="http://www.w3.org/2000/svg">
<g clip-path="url(#clip0_737_571)">
<g clip-path="url(#clip1_737_571)">
<g clip-path="url(#clip2_737_571)">
<mask id="mask0_737_571" style="mask-type:luminance" maskUnits="userSpaceOnUse" x="0" y="-90" width="1963" height="1193">
<path d="M-5.21477e-05 1103L0 -90L1963 -89.9999L1963 1103L-5.21477e-05 1103Z" fill="white"/>
</mask>
<g mask="url(#mask0_737_571)">
<mask id="mask1_737_571" style="mask-type:luminance" maskUnits="userSpaceOnUse" x="0" y="-1692" width="1963" height="2795">
<path d="M-6.8494e-08 1102.21L0.00012207 -1692L1962.81 -1692L1962.81 1102.21L-6.8494e-08 1102.21Z" fill="white"/>
</mask>
<g mask="url(#mask1_737_571)">
<mask id="mask2_737_571" style="mask-type:luminance" maskUnits="userSpaceOnUse" x="-228" y="-1842" width="2419" height="3094">
<path d="M-227.7 910.6L257.51 -1841.2L2190.51 -1500.37L1705.3 1251.43L-227.7 910.59L-227.7 910.6Z" fill="white"/>
</mask>
<g mask="url(#mask2_737_571)">
<g opacity="0.4" filter="url(#filter0_f_737_571)">
<path fill-rule="evenodd" clip-rule="evenodd" d="M581.07 166.7C667.491 338.78 751.28 505.63 902.78 527.69C1142.23 562.368 1486.83 287.85 1660.19 -12.8702C1784.94 -229.33 1821.45 -448.93 1799.34 -628.24C1749.55 -1030.91 1455.64 -1230.17 1048.76 -1244.63C781.32 -1254.04 588.19 -1161.09 461.54 -1027.1C326.03 -883.14 269.31 -692.41 275.38 -535.47C279.344 -429.52 318.841 -232.94 431.31 -90.1002C488.899 -16.7992 535.35 75.6797 581.06 166.7L581.07 166.7ZM1352.36 -476.85C1319.8 -292.17 1143.7 -168.87 959.02 -201.43C774.35 -233.993 651.04 -410.09 683.6 -594.77C716.163 -779.44 892.27 -902.75 1076.94 -870.19C1261.62 -837.627 1384.92 -661.52 1352.36 -476.85Z" fill="url(#paint0_linear_737_571)"/>
</g>
<g filter="url(#filter1_df_737_571)">
<path fill-rule="evenodd" clip-rule="evenodd" d="M1682.3 -419.32C1621.97 -77.1699 1251.9 240.39 1060.93 218.52C979.507 209.204 899.75 114.31 803.15 -0.619978C770.081 -39.9599 735.038 -81.6559 697.28 -123.08C665.436 -158.001 628.498 -190.951 591.86 -223.62C501.197 -304.488 412.39 -383.71 407.25 -487.11C390.364 -826.59 820.79 -1156.87 1162.93 -1096.54C1505.09 -1036.21 1742.63 -761.46 1682.3 -419.32ZM1421.21 -465.357C1383.29 -250.327 1178.25 -106.747 963.21 -144.667C748.18 -182.583 604.6 -387.627 642.52 -602.667C680.435 -817.697 885.49 -961.277 1100.52 -923.357C1315.55 -885.441 1459.13 -680.387 1421.21 -465.357Z" fill="url(#paint1_radial_737_571)"/>
</g>
<g filter="url(#filter2_df_737_571)">
<path fill-rule="evenodd" clip-rule="evenodd" d="M1682.3 -419.32C1621.97 -77.1699 1251.9 240.39 1060.93 218.52C979.507 209.204 899.75 114.31 803.15 -0.619978C770.081 -39.9599 735.038 -81.6559 697.28 -123.08C665.436 -158.001 628.498 -190.951 591.86 -223.62C501.197 -304.488 412.39 -383.71 407.25 -487.11C390.364 -826.59 820.79 -1156.87 1162.93 -1096.54C1505.09 -1036.21 1742.63 -761.46 1682.3 -419.32ZM1421.21 -465.357C1383.29 -250.327 1178.25 -106.747 963.21 -144.667C748.18 -182.583 604.6 -387.627 642.52 -602.667C680.435 -817.697 885.49 -961.277 1100.52 -923.357C1315.55 -885.441 1459.13 -680.387 1421.21 -465.357Z" fill="url(#paint2_radial_737_571)"/>
</g>
<g filter="url(#filter3_f_737_571)">
<path d="M885.06 418.94C1243.01 482.058 1621.78 -36.09 1684.9 -394.06C1748.02 -752.02 1509 -1093.37 1151.04 -1156.49C793.08 -1219.6 451.72 -980.59 388.61 -622.63C357.258 -444.82 544.79 -234.21 630.78 -27.3401C717.911 182.28 704.897 387.18 885.06 418.95L885.06 418.94Z" fill="url(#paint3_linear_737_571)" fill-opacity="0.97"/>
</g>
</g>
</g>
</g>
</g>
</g>
</g>
<defs>
<filter id="filter0_f_737_571" x="86.9419" y="-1433.29" width="1906.47" height="2151.94" filterUnits="userSpaceOnUse" color-interpolation-filters="sRGB">
<feFlood flood-opacity="0" result="BackgroundImageFix"/>
<feBlend mode="normal" in="SourceGraphic" in2="BackgroundImageFix" result="shape"/>
<feGaussianBlur stdDeviation="94" result="effect1_foregroundBlur_737_571"/>
</filter>
<filter id="filter1_df_737_571" x="357.768" y="-1152.71" width="1382.91" height="1421.3" filterUnits="userSpaceOnUse" color-interpolation-filters="sRGB">
<feFlood flood-opacity="0" result="BackgroundImageFix"/>
<feColorMatrix in="SourceAlpha" type="matrix" values="0 0 0 0 0 0 0 0 0 0 0 0 0 0 0 0 0 0 127 0" result="hardAlpha"/>
<feOffset dy="5"/>
<feGaussianBlur stdDeviation="9.5"/>
<feComposite in2="hardAlpha" operator="out"/>
<feColorMatrix type="matrix" values="0 0 0 0 1 0 0 0 0 1 0 0 0 0 1 0 0 0 1 0"/>
<feBlend mode="normal" in2="BackgroundImageFix" result="effect1_dropShadow_737_571"/>
<feBlend mode="normal" in="SourceGraphic" in2="effect1_dropShadow_737_571" result="shape"/>
<feGaussianBlur stdDeviation="24.5" result="effect2_foregroundBlur_737_571"/>
</filter>
<filter id="filter2_df_737_571" x="362.768" y="-1149.71" width="1372.91" height="1411.3" filterUnits="userSpaceOnUse" color-interpolation-filters="sRGB">
<feFlood flood-opacity="0" result="BackgroundImageFix"/>
<feColorMatrix in="SourceAlpha" type="matrix" values="0 0 0 0 0 0 0 0 0 0 0 0 0 0 0 0 0 0 127 0" result="hardAlpha"/>
<feOffset dy="-2"/>
<feGaussianBlur stdDeviation="22"/>
<feComposite in2="hardAlpha" operator="out"/>
<feColorMatrix type="matrix" values="0 0 0 0 0.0195659 0 0 0 0 0.631952 0 0 0 0 0.670833 0 0 0 0.9 0"/>
<feBlend mode="normal" in2="BackgroundImageFix" result="effect1_dropShadow_737_571"/>
<feBlend mode="normal" in="SourceGraphic" in2="effect1_dropShadow_737_571" result="shape"/>
<feGaussianBlur stdDeviation="7.5" result="effect2_foregroundBlur_737_571"/>
</filter>
<filter id="filter3_f_737_571" x="245.114" y="-1306.6" width="1589.9" height="1870.8" filterUnits="userSpaceOnUse" color-interpolation-filters="sRGB">
<feFlood flood-opacity="0" result="BackgroundImageFix"/>
<feBlend mode="normal" in="SourceGraphic" in2="BackgroundImageFix" result="shape"/>
<feGaussianBlur stdDeviation="70" result="effect1_foregroundBlur_737_571"/>
</filter>
<linearGradient id="paint0_linear_737_571" x1="1385.8" y1="302.75" x2="758.08" y2="-1245.6" gradientUnits="userSpaceOnUse">
<stop stop-color="#2442AB"/>
<stop offset="1" stop-color="#33A8D4"/>
</linearGradient>
<radialGradient id="paint1_radial_737_571" cx="0" cy="0" r="1" gradientUnits="userSpaceOnUse" gradientTransform="translate(1039.7 -451.17) rotate(9.958) scale(638.38 656.15)">
<stop stop-color="#D59F42"/>
<stop offset="0.28125" stop-color="#FEA568"/>
<stop offset="0.52083" stop-color="#E6AB4F"/>
<stop offset="0.76562" stop-color="#7E9485"/>
<stop offset="1" stop-color="#D59F42"/>
</radialGradient>
<radialGradient id="paint2_radial_737_571" cx="0" cy="0" r="1" gradientUnits="userSpaceOnUse" gradientTransform="translate(1039.7 -451.17) rotate(9.958) scale(638.38 656.15)">
<stop stop-color="#D59F42"/>
<stop offset="0.28125" stop-color="#FDB07B"/>
<stop offset="0.52083" stop-color="#F3D3A1"/>
<stop offset="0.76562" stop-color="#7E9485"/>
<stop offset="1" stop-color="#D59F42"/>
</radialGradient>
<linearGradient id="paint3_linear_737_571" x1="888.45" y1="473.32" x2="1162.5" y2="-1154.5" gradientUnits="userSpaceOnUse">
<stop stop-color="#02226C"/>
<stop offset="0.16591" stop-color="#164787"/>
<stop offset="0.30769" stop-color="#347068"/>
<stop offset="0.50238" stop-color="#FDE14D"/>
</linearGradient>
<clipPath id="clip0_737_571">
<rect width="1193" height="1963" fill="white" transform="matrix(-4.37114e-08 1 1 4.37114e-08 0 -90)"/>
</clipPath>
<clipPath id="clip1_737_571">
<rect width="1193" height="1963" fill="white" transform="matrix(-4.37114e-08 1 1 4.37114e-08 0 -90)"/>
</clipPath>
<clipPath id="clip2_737_571">
<rect width="1193" height="1963" fill="white" transform="matrix(-4.37114e-08 1 1 4.37114e-08 0 -90)"/>
</clipPath>
</defs>
</svg>
