<svg width="52" height="56" viewBox="0 0 52 56" fill="none" xmlns="http://www.w3.org/2000/svg">
<path fill-rule="evenodd" clip-rule="evenodd" d="M43.8005 4.77892C42.1019 5.08025 39.8645 5.81892 36.6005 6.90959L25.9339 10.4643C24.1285 11.0669 22.9365 11.4669 22.0565 11.8776C21.2245 12.2616 20.8645 12.5736 20.6352 12.8936C20.4059 13.2136 20.2219 13.6536 20.1179 14.5656C20.0112 15.5256 20.0059 16.7869 20.0059 18.6883V24.2243L48.0059 14.8909C48.0059 11.5789 47.9952 9.29092 47.7499 7.62425C47.5072 5.96292 47.0885 5.36559 46.6219 5.02692C46.1552 4.69092 45.4539 4.48292 43.8005 4.77892ZM51.9792 11.0003C51.9472 9.49359 51.8725 8.17359 51.7072 7.04559C51.3979 4.93092 50.7072 3.04292 48.9605 1.78159C47.2139 0.52292 45.2032 0.46692 43.0992 0.840254C41.0779 1.20025 38.5605 2.04025 35.4885 3.06425L24.5605 6.70425C22.8912 7.26425 21.4805 7.73359 20.3712 8.25092C19.1899 8.79759 18.1659 9.47759 17.3899 10.5549C16.6139 11.6323 16.2912 12.8189 16.1445 14.1123C16.0684 14.8504 16.0266 15.5916 16.0192 16.3336H16.0059V37.6643C14.2037 36.3126 11.998 35.6091 9.74605 35.6676C7.49411 35.7262 5.32791 36.5433 3.5984 37.9867C1.86889 39.4301 0.677396 41.4152 0.216972 43.6204C-0.243452 45.8255 0.0541635 48.1215 1.0616 50.1364C2.06904 52.1513 3.72727 53.767 5.76764 54.7217C7.808 55.6765 10.111 55.9143 12.3034 55.3967C14.4958 54.8792 16.4493 53.6365 17.8473 51.8701C19.2453 50.1037 20.0059 47.917 20.0059 45.6643V28.4403L48.0059 19.1069V32.3336C46.2037 30.982 43.998 30.2784 41.7461 30.337C39.4941 30.3955 37.3279 31.2127 35.5984 32.6561C33.8689 34.0995 32.6774 36.0846 32.217 38.2897C31.7565 40.4948 32.0542 42.7909 33.0616 44.8057C34.069 46.8206 35.7273 48.4363 37.7676 49.391C39.808 50.3458 42.111 50.5836 44.3034 50.0661C46.4958 49.5485 48.4493 48.3059 49.8473 46.5394C51.2453 44.773 52.0059 42.5863 52.0059 40.3336V11.0003H51.9792ZM48.0059 40.3336C48.0059 38.7423 47.3737 37.2162 46.2485 36.091C45.1233 34.9657 43.5972 34.3336 42.0059 34.3336C40.4146 34.3336 38.8885 34.9657 37.7632 36.091C36.638 37.2162 36.0059 38.7423 36.0059 40.3336C36.0059 41.9249 36.638 43.451 37.7632 44.5762C38.8885 45.7015 40.4146 46.3336 42.0059 46.3336C43.5972 46.3336 45.1233 45.7015 46.2485 44.5762C47.3737 43.451 48.0059 41.9249 48.0059 40.3336ZM16.0059 45.6669C16.0059 44.0756 15.3737 42.5495 14.2485 41.4243C13.1233 40.2991 11.5972 39.6669 10.0059 39.6669C8.41457 39.6669 6.88845 40.2991 5.76323 41.4243C4.63801 42.5495 4.00587 44.0756 4.00587 45.6669C4.00587 47.2582 4.63801 48.7843 5.76323 49.9096C6.88845 51.0348 8.41457 51.6669 10.0059 51.6669C11.5972 51.6669 13.1233 51.0348 14.2485 49.9096C15.3737 48.7843 16.0059 47.2582 16.0059 45.6669Z" fill="#FBFBFB"/>
</svg>
