<svg width="64" height="64" viewBox="0 0 64 64" fill="none" xmlns="http://www.w3.org/2000/svg">
<path d="M37.9259 58.3333C47.9819 58.3333 53.0112 58.3333 56.1339 55.1013C59.2565 51.8693 59.2592 46.6693 59.2592 36.2667V32.2107C59.2592 26.1067 59.2592 23.056 57.8725 20.528C56.4912 17.9973 53.9605 16.4293 48.9019 13.288L43.5685 9.97867C38.2192 6.65867 35.5472 5 32.5925 5C29.6379 5 26.9659 6.65867 21.6165 9.97867L16.2832 13.288C11.2245 16.4293 8.69386 17.9973 7.30986 20.528C6.46186 22.0747 6.13653 23.816 6.00586 26.3333" stroke="#FBFBFB" stroke-width="5" stroke-linecap="round"/>
<path d="M30.1392 58.668C30.1392 52.3028 27.6106 46.1983 23.1097 41.6974C18.6089 37.1965 12.5044 34.668 6.13916 34.668" stroke="#FBFBFB" stroke-width="5" stroke-linecap="round"/>
<path d="M22.1392 58.668C22.1392 54.4245 20.4535 50.3548 17.4529 47.3543C14.4523 44.3537 10.3826 42.668 6.13916 42.668M14.1392 58.668C14.1392 56.5462 13.2963 54.5114 11.796 53.0111C10.2957 51.5108 8.26089 50.668 6.13916 50.668" stroke="#FBFBFB" stroke-width="5" stroke-linecap="round"/>
</svg>
