<svg width="58" height="58" viewBox="0 0 58 58" fill="none" xmlns="http://www.w3.org/2000/svg">
<path fill-rule="evenodd" clip-rule="evenodd" d="M29.0058 0.333008C27.1178 0.333008 25.4031 0.874341 23.5391 1.77834C21.7418 2.65301 19.6618 3.94367 17.0671 5.55434L11.5551 8.97568C9.10178 10.501 7.13111 11.7223 5.61645 12.8823C4.04578 14.0823 2.84044 15.309 1.96844 16.901C1.09911 18.4877 0.709778 20.1783 0.520445 22.1757C0.339111 24.109 0.339111 26.477 0.339111 29.445V33.7463C0.339111 38.8237 0.339111 42.8317 0.747111 45.965C1.16311 49.1783 2.04311 51.773 4.02711 53.8237C6.01911 55.885 8.55244 56.8077 11.6938 57.2423C14.7338 57.6663 18.6218 57.6663 23.5178 57.6663H34.4938C39.3898 57.6663 43.2778 57.6663 46.3178 57.2423C49.4564 56.8077 51.9924 55.885 53.9871 53.8237C55.9684 51.773 56.8484 49.1783 57.2671 45.965C57.6724 42.8317 57.6724 38.8237 57.6724 33.7463V29.445C57.6724 26.477 57.6724 24.1117 57.4911 22.1757C57.3044 20.1757 56.9124 18.4877 56.0431 16.901C55.1711 15.309 53.9631 14.085 52.3951 12.8823C50.8804 11.7197 48.9124 10.501 46.4564 8.97568L40.9444 5.55434C38.3498 3.94367 36.2698 2.65301 34.4698 1.77834C32.6111 0.871675 30.8964 0.333008 29.0058 0.333008ZM19.0858 9.01034C21.7924 7.33034 23.6991 6.15167 25.2911 5.37567C26.8404 4.62101 27.9391 4.33301 29.0058 4.33301C30.0724 4.33301 31.1711 4.62101 32.7204 5.37567C34.3151 6.14901 36.2191 7.33034 38.9258 9.01034L44.2591 12.3197C46.8218 13.9117 48.6218 15.029 49.9658 16.0583C51.2698 17.0583 52.0191 17.8823 52.5338 18.821C53.0484 19.7623 53.3498 20.8637 53.5071 22.549C53.6698 24.277 53.6724 26.4557 53.6724 29.5437V33.5997C53.6724 38.853 53.6671 42.6023 53.2991 45.4477C52.9364 48.2423 52.2511 49.8637 51.1124 51.045C49.9791 52.2157 48.4378 52.9117 45.7684 53.2823C43.0324 53.661 39.4244 53.6663 34.3391 53.6663H23.6724C18.5844 53.6663 14.9791 53.661 12.2431 53.2823C9.57378 52.909 8.03244 52.2157 6.90178 51.0423C5.76044 49.8637 5.07511 48.2423 4.71511 45.4477C4.34178 42.6023 4.33911 38.8557 4.33911 33.5997V29.5437C4.33911 26.4557 4.33911 24.277 4.50445 22.549C4.66178 20.8637 4.96311 19.7623 5.47778 18.821C5.99244 17.8823 6.74178 17.0583 8.04844 16.0583C9.38978 15.029 11.1898 13.9117 13.7524 12.3197L19.0858 9.01034Z" fill="#FBFBFB"/>
</svg>
