<svg width="60" height="48" viewBox="0 0 60 48" fill="none" xmlns="http://www.w3.org/2000/svg">
<path d="M6.73911 32.7897C4.47244 29.8457 3.33911 28.371 3.33911 24.0003C3.33911 19.627 4.47244 18.1577 6.73911 15.211C11.2644 9.33366 18.8538 2.66699 30.0058 2.66699C41.1578 2.66699 48.7471 9.33366 53.2724 15.211C55.5391 18.1603 56.6724 19.6297 56.6724 24.0003C56.6724 28.3737 55.5391 29.843 53.2724 32.7897C48.7471 38.667 41.1578 45.3337 30.0058 45.3337C18.8538 45.3337 11.2644 38.667 6.73911 32.7897Z" stroke="#FBFBFB" stroke-width="5"/>
<path d="M38.0059 24C38.0059 26.1217 37.163 28.1566 35.6627 29.6569C34.1624 31.1571 32.1276 32 30.0059 32C27.8841 32 25.8493 31.1571 24.349 29.6569C22.8487 28.1566 22.0059 26.1217 22.0059 24C22.0059 21.8783 22.8487 19.8434 24.349 18.3431C25.8493 16.8429 27.8841 16 30.0059 16C32.1276 16 34.1624 16.8429 35.6627 18.3431C37.163 19.8434 38.0059 21.8783 38.0059 24Z" stroke="#FBFBFB" stroke-width="5"/>
</svg>
