<svg width="60" height="48" viewBox="0 0 60 48" fill="none" xmlns="http://www.w3.org/2000/svg">
<path d="M3.33911 22.667C3.33911 13.9017 3.33911 9.51766 5.76044 6.56566C6.20336 6.02606 6.69818 5.53124 7.23778 5.08833C10.1924 2.66699 14.5711 2.66699 23.3391 2.66699C32.1044 2.66699 36.4884 2.66699 39.4404 5.08833C39.98 5.53124 40.4749 6.02606 40.9178 6.56566C43.3391 9.52032 43.3391 13.899 43.3391 22.667V25.3337C43.3391 34.099 43.3391 38.483 40.9178 41.435C40.4749 41.9746 39.98 42.4694 39.4404 42.9123C36.4858 45.3337 32.1071 45.3337 23.3391 45.3337C14.5738 45.3337 10.1898 45.3337 7.23778 42.9123C6.69818 42.4694 6.20336 41.9746 5.76044 41.435C3.33911 38.4803 3.33911 34.1017 3.33911 25.3337V22.667ZM43.3391 17.3337L45.0938 16.4563C50.2831 13.8617 52.8804 12.563 54.7738 13.7363C56.6724 14.9097 56.6724 17.811 56.6724 23.611V24.3897C56.6724 30.1923 56.6724 33.091 54.7764 34.2643C52.8778 35.4377 50.2831 34.139 45.0964 31.5443L43.3391 30.667V17.3337Z" stroke="#FBFBFB" stroke-width="5"/>
</svg>
