<svg width="109" height="24" viewBox="0 0 109 24" fill="none" xmlns="http://www.w3.org/2000/svg">
<path d="M0 23.5194L7.28566 0.448926H12.9505L20.2362 23.5194H16.2563L9.64467 2.82005H10.5112L3.97983 23.5194H0Z" fill="#FBFBFB"/>
<path d="M26.0803 23.5194L18.7946 0.448926H22.7744L28.8726 19.7704L35.0509 0.448926H39.0308L31.7451 23.5194H26.0803Z" fill="#FBFBFB"/>
<path d="M41.7629 23.5194V0.448926H45.6304V23.5194H41.7629Z" fill="#FBFBFB"/>
<path d="M58.9909 24C57.3005 24 55.776 23.7063 54.4173 23.1188C53.0692 22.5314 51.9566 21.693 51.0793 20.6035C50.2128 19.5034 49.6618 18.2003 49.4264 16.6944L53.4383 16.0856C53.7807 17.4527 54.4814 18.5101 55.5406 19.2577C56.6104 20.0054 57.8408 20.3792 59.2316 20.3792C60.0553 20.3792 60.831 20.2511 61.5585 19.9947C62.286 19.7384 62.8744 19.3646 63.3237 18.8732C63.7838 18.3819 64.0138 17.7785 64.0138 17.0628C64.0138 16.7424 63.9603 16.4487 63.8533 16.1817C63.7463 15.904 63.5858 15.6583 63.3719 15.4447C63.1686 15.2311 62.9011 15.0388 62.5695 14.868C62.2485 14.6864 61.8741 14.5315 61.4462 14.4033L55.4764 12.641C54.9629 12.4915 54.4066 12.2939 53.8074 12.0482C53.219 11.7919 52.6574 11.4448 52.1224 11.0069C51.5982 10.5583 51.1649 9.99219 50.8226 9.30862C50.4909 8.61437 50.3251 7.75991 50.3251 6.74523C50.3251 5.26061 50.6995 4.0163 51.4484 3.01231C52.208 1.99763 53.2244 1.2393 54.4975 0.737306C55.7813 0.23531 57.2042 -0.0103475 58.7662 0.000333804C60.3496 0.0110138 61.7618 0.283373 63.0028 0.817412C64.2438 1.34077 65.2816 2.10444 66.116 3.10843C66.9505 4.11243 67.5389 5.32469 67.8813 6.74523L63.7249 7.46618C63.5537 6.65445 63.2221 5.96554 62.73 5.39946C62.2485 4.8227 61.6548 4.38479 60.9487 4.08572C60.2533 3.78666 59.5097 3.62645 58.718 3.60509C57.9478 3.59441 57.231 3.7119 56.5676 3.95755C55.915 4.19253 55.3855 4.53432 54.9789 4.98291C54.5831 5.4315 54.3852 5.95486 54.3852 6.55298C54.3852 7.11906 54.5563 7.58367 54.8987 7.94682C55.241 8.29928 55.6636 8.58232 56.1665 8.79594C56.68 8.99887 57.1989 9.16977 57.7231 9.30862L61.8634 10.4621C62.4304 10.6117 63.067 10.8146 63.7731 11.0709C64.4792 11.3273 65.1585 11.6851 65.8111 12.1444C66.4637 12.6036 66.9986 13.2071 67.4159 13.9547C67.8438 14.7024 68.0578 15.653 68.0578 16.8065C68.0578 18.0028 67.8064 19.0548 67.3036 19.9627C66.8114 20.8599 66.1428 21.6075 65.2976 22.2056C64.4524 22.8038 63.4842 23.2523 62.393 23.5514C61.3124 23.8505 60.1784 24 58.9909 24Z" fill="#FBFBFB"/>
<path d="M77.0839 23.5194V4.0697H69.6057V0.448926H88.4296V4.0697H80.9514V23.5194H77.0839Z" fill="#FBFBFB"/>
<path d="M88.7639 23.5194L96.0495 0.448926H101.714L109 23.5194H105.02L98.4085 2.82005H99.2751L92.7437 23.5194H88.7639Z" fill="#FBFBFB"/>
</svg>
