<svg width="64" height="64" viewBox="0 0 64 64" fill="none" xmlns="http://www.w3.org/2000/svg">
<path d="M17.4667 32.512C25.5121 23.8293 38.4881 23.8293 46.5334 32.512C46.712 32.7046 46.9268 32.8601 47.1655 32.9697C47.4042 33.0793 47.6622 33.1409 47.9246 33.1508C48.1871 33.1607 48.449 33.1188 48.6953 33.0275C48.9416 32.9362 49.1675 32.7973 49.3601 32.6187C49.5527 32.4401 49.7082 32.2253 49.8178 31.9866C49.9274 31.7479 49.9889 31.4899 49.9988 31.2274C50.0087 30.9649 49.9668 30.7031 49.8755 30.4568C49.7842 30.2105 49.6453 29.9846 49.4667 29.792C39.8401 19.4027 24.1601 19.4027 14.5334 29.792C14.3548 29.9846 14.2159 30.2105 14.1246 30.4568C14.0333 30.7031 13.9914 30.9649 14.0013 31.2274C14.0112 31.4899 14.0727 31.7479 14.1823 31.9866C14.2919 32.2253 14.4474 32.4401 14.6401 32.6187C14.8327 32.7973 15.0586 32.9362 15.3048 33.0275C15.5511 33.1188 15.813 33.1607 16.0755 33.1508C16.338 33.1409 16.5959 33.0793 16.8346 32.9697C17.0733 32.8601 17.2881 32.7046 17.4667 32.512Z" fill="url(#paint0_linear_1455_126)"/>
<path d="M22.8 38.267C27.8986 32.763 36.0986 32.763 41.2 38.267C41.3762 38.4678 41.5909 38.6313 41.8313 38.7478C42.0718 38.8643 42.3331 38.9314 42.6 38.9452C42.8668 38.959 43.1337 38.9193 43.3849 38.8282C43.6361 38.7372 43.8665 38.5967 44.0625 38.4151C44.2585 38.2335 44.4161 38.0145 44.5261 37.771C44.6361 37.5275 44.6961 37.2644 44.7027 36.9973C44.7093 36.7302 44.6623 36.4645 44.5645 36.2159C44.4667 35.9672 44.3201 35.7407 44.1333 35.5496C37.4506 28.3363 26.5493 28.3363 19.8666 35.5496C19.688 35.7423 19.5491 35.9681 19.4578 36.2144C19.3665 36.4607 19.3246 36.7226 19.3346 36.9851C19.3445 37.2476 19.406 37.5055 19.5156 37.7442C19.6252 37.9829 19.7807 38.1977 19.9733 38.3763C20.1659 38.5549 20.3918 38.6938 20.6381 38.7851C20.8844 38.8764 21.1463 38.9183 21.4087 38.9084C21.6712 38.8985 21.9292 38.837 22.1679 38.7274C22.4066 38.6178 22.6214 38.4596 22.8 38.267Z" fill="url(#paint1_linear_1455_126)"/>
<path d="M28.1334 44.0263C30.288 41.7009 33.712 41.7009 35.8667 44.0263C36.2274 44.4153 36.7278 44.645 37.2579 44.665C37.788 44.685 38.3044 44.4936 38.6934 44.1329C39.0823 43.7722 39.3121 43.2718 39.3321 42.7417C39.3521 42.2116 39.1607 41.6953 38.8 41.3063C35.064 37.2716 28.936 37.2716 25.2 41.3063C25.0214 41.4989 24.8825 41.7248 24.7912 41.9711C24.6999 42.2174 24.658 42.4792 24.6679 42.7417C24.6778 43.0042 24.7393 43.2621 24.8489 43.5008C24.9585 43.7396 25.1141 43.9543 25.3067 44.1329C25.4993 44.3115 25.7252 44.4505 25.9715 44.5417C26.2178 44.633 26.4796 44.6749 26.7421 44.665C27.0046 44.6551 27.2625 44.5936 27.5013 44.484C27.74 44.3744 27.9548 44.2189 28.1334 44.0263Z" fill="url(#paint2_linear_1455_126)"/>
<path fill-rule="evenodd" clip-rule="evenodd" d="M32 3.33301C30.112 3.33301 28.3974 3.87434 26.5334 4.77834C24.736 5.65301 22.656 6.94367 20.0614 8.55434L14.5494 11.9757C12.096 13.501 10.1254 14.7223 8.61071 15.8823C7.04004 17.0823 5.83471 18.309 4.96271 19.901C4.09337 21.4877 3.70404 23.1783 3.51471 25.1757C3.33337 27.109 3.33337 29.477 3.33337 32.445V36.7463C3.33337 41.8237 3.33337 45.8317 3.74137 48.965C4.15737 52.1783 5.03737 54.773 7.02137 56.8237C9.01337 58.885 11.5467 59.8077 14.688 60.2423C17.728 60.6663 21.616 60.6663 26.512 60.6663H37.488C42.384 60.6663 46.272 60.6663 49.312 60.2423C52.4507 59.8077 54.9867 58.885 56.9814 56.8237C58.9627 54.773 59.8427 52.1783 60.2614 48.965C60.6667 45.8317 60.6667 41.8237 60.6667 36.7463V32.445C60.6667 29.477 60.6667 27.1117 60.4854 25.1757C60.2987 23.1757 59.9067 21.4877 59.0374 19.901C58.1654 18.309 56.9574 17.085 55.3894 15.8823C53.8747 14.7197 51.9067 13.501 49.4507 11.9757L43.9387 8.55434C41.344 6.94367 39.264 5.65301 37.464 4.77834C35.6054 3.87167 33.8907 3.33301 32 3.33301ZM22.08 12.0103C24.7867 10.3303 26.6934 9.15167 28.2854 8.37567C29.8347 7.62101 30.9334 7.33301 32 7.33301C33.0667 7.33301 34.1654 7.62101 35.7147 8.37567C37.3094 9.14901 39.2134 10.3303 41.92 12.0103L47.2534 15.3197C49.816 16.9117 51.616 18.029 52.96 19.0583C54.264 20.0583 55.0134 20.8823 55.528 21.821C56.0427 22.7623 56.344 23.8637 56.5014 25.549C56.664 27.277 56.6667 29.4557 56.6667 32.5437V36.5997C56.6667 41.853 56.6614 45.6023 56.2934 48.4477C55.9307 51.2423 55.2454 52.8637 54.1067 54.045C52.9734 55.2157 51.432 55.9117 48.7627 56.2823C46.0267 56.661 42.4187 56.6663 37.3334 56.6663H26.6667C21.5787 56.6663 17.9734 56.661 15.2374 56.2823C12.568 55.909 11.0267 55.2157 9.89604 54.0423C8.75471 52.8637 8.06937 51.2423 7.70937 48.4477C7.33604 45.6023 7.33337 41.8557 7.33337 36.5997V32.5437C7.33337 29.4557 7.33337 27.277 7.49871 25.549C7.65604 23.8637 7.95737 22.7623 8.47204 21.821C8.98671 20.8823 9.73604 20.0583 11.0427 19.0583C12.384 18.029 14.184 16.9117 16.7467 15.3197L22.08 12.0103Z" fill="url(#paint3_linear_1455_126)"/>
<defs>
<linearGradient id="paint0_linear_1455_126" x1="13.9999" y1="27.5761" x2="50.0002" y2="27.5761" gradientUnits="userSpaceOnUse">
<stop stop-color="#F1920C"/>
<stop offset="1" stop-color="#FFD700"/>
</linearGradient>
<linearGradient id="paint1_linear_1455_126" x1="19.3331" y1="34.5438" x2="44.7033" y2="34.5438" gradientUnits="userSpaceOnUse">
<stop stop-color="#F1920C"/>
<stop offset="1" stop-color="#FFD700"/>
</linearGradient>
<linearGradient id="paint2_linear_1455_126" x1="24.6665" y1="41.4734" x2="39.3335" y2="41.4734" gradientUnits="userSpaceOnUse">
<stop stop-color="#F1920C"/>
<stop offset="1" stop-color="#FFD700"/>
</linearGradient>
<linearGradient id="paint3_linear_1455_126" x1="3.33337" y1="31.9997" x2="60.6667" y2="31.9997" gradientUnits="userSpaceOnUse">
<stop stop-color="#F1920C"/>
<stop offset="1" stop-color="#FFD700"/>
</linearGradient>
</defs>
</svg>
