<svg width="64" height="64" viewBox="0 0 64 64" fill="none" xmlns="http://www.w3.org/2000/svg">
<path fill-rule="evenodd" clip-rule="evenodd" d="M49.7947 9.77892C48.096 10.0803 45.8587 10.8189 42.5947 11.9096L31.928 15.4643C30.1227 16.0669 28.9307 16.4669 28.0507 16.8776C27.2187 17.2616 26.8587 17.5736 26.6293 17.8936C26.4 18.2136 26.216 18.6536 26.112 19.5656C26.0053 20.5256 26 21.7869 26 23.6883V29.2243L54 19.8909C54 16.5789 53.9893 14.2909 53.744 12.6243C53.5013 10.9629 53.0827 10.3656 52.616 10.0269C52.1493 9.69092 51.448 9.48292 49.7947 9.77892ZM57.9733 16.0003C57.9413 14.4936 57.8667 13.1736 57.7013 12.0456C57.392 9.93092 56.7013 8.04292 54.9547 6.78159C53.208 5.52292 51.1973 5.46692 49.0933 5.84025C47.072 6.20025 44.5547 7.04025 41.4827 8.06425L30.5547 11.7043C28.8853 12.2643 27.4747 12.7336 26.3653 13.2509C25.184 13.7976 24.16 14.4776 23.384 15.5549C22.608 16.6323 22.2853 17.8189 22.1387 19.1123C22.0626 19.8504 22.0208 20.5916 22.0133 21.3336H22V42.6643C20.1979 41.3126 17.9921 40.6091 15.7402 40.6676C13.4883 40.7262 11.322 41.5433 9.59254 42.9867C7.86303 44.4301 6.67154 46.4152 6.21111 48.6204C5.75069 50.8255 6.0483 53.1215 7.05574 55.1364C8.06318 57.1513 9.72141 58.767 11.7618 59.7217C13.8021 60.6765 16.1051 60.9143 18.2975 60.3967C20.49 59.8792 22.4434 58.6365 23.8414 56.8701C25.2394 55.1037 26 52.917 26 50.6643V33.4403L54 24.1069V37.3336C52.1979 35.982 49.9921 35.2784 47.7402 35.337C45.4883 35.3955 43.3221 36.2127 41.5925 37.6561C39.863 39.0995 38.6715 41.0846 38.2111 43.2897C37.7507 45.4948 38.0483 47.7909 39.0557 49.8057C40.0632 51.8206 41.7214 53.4363 43.7618 54.391C45.8021 55.3458 48.1051 55.5836 50.2975 55.0661C52.49 54.5485 54.4434 53.3059 55.8414 51.5394C57.2394 49.773 58 47.5863 58 45.3336V16.0003H57.9733ZM54 45.3336C54 43.7423 53.3679 42.2162 52.2427 41.091C51.1174 39.9657 49.5913 39.3336 48 39.3336C46.4087 39.3336 44.8826 39.9657 43.7574 41.091C42.6322 42.2162 42 43.7423 42 45.3336C42 46.9249 42.6322 48.451 43.7574 49.5762C44.8826 50.7015 46.4087 51.3336 48 51.3336C49.5913 51.3336 51.1174 50.7015 52.2427 49.5762C53.3679 48.451 54 46.9249 54 45.3336ZM22 50.6669C22 49.0756 21.3679 47.5495 20.2427 46.4243C19.1174 45.2991 17.5913 44.6669 16 44.6669C14.4087 44.6669 12.8826 45.2991 11.7574 46.4243C10.6322 47.5495 10 49.0756 10 50.6669C10 52.2582 10.6322 53.7843 11.7574 54.9096C12.8826 56.0348 14.4087 56.6669 16 56.6669C17.5913 56.6669 19.1174 56.0348 20.2427 54.9096C21.3679 53.7843 22 52.2582 22 50.6669Z" fill="url(#paint0_linear_1455_511)"/>
<defs>
<linearGradient id="paint0_linear_1455_511" x1="6" y1="33.1515" x2="58" y2="33.1515" gradientUnits="userSpaceOnUse">
<stop stop-color="#F1920C"/>
<stop offset="1" stop-color="#FFD700"/>
</linearGradient>
</defs>
</svg>
