<svg width="64" height="64" viewBox="0 0 64 64" fill="none" xmlns="http://www.w3.org/2000/svg">
<path d="M5.33337 30.667C5.33337 21.9017 5.33337 17.5177 7.75471 14.5657C8.19762 14.0261 8.69244 13.5312 9.23204 13.0883C12.1867 10.667 16.5654 10.667 25.3334 10.667C34.0987 10.667 38.4827 10.667 41.4347 13.0883C41.9743 13.5312 42.4691 14.0261 42.912 14.5657C45.3334 17.5203 45.3334 21.899 45.3334 30.667V33.3337C45.3334 42.099 45.3334 46.483 42.912 49.435C42.4691 49.9746 41.9743 50.4694 41.4347 50.9123C38.48 53.3337 34.1014 53.3337 25.3334 53.3337C16.568 53.3337 12.184 53.3337 9.23204 50.9123C8.69244 50.4694 8.19762 49.9746 7.75471 49.435C5.33337 46.4803 5.33337 42.1017 5.33337 33.3337V30.667ZM45.3334 25.3337L47.088 24.4563C52.2774 21.8617 54.8747 20.563 56.768 21.7363C58.6667 22.9097 58.6667 25.811 58.6667 31.611V32.3897C58.6667 38.1923 58.6667 41.091 56.7707 42.2643C54.872 43.4377 52.2774 42.139 47.0907 39.5443L45.3334 38.667V25.3337Z" stroke="url(#paint0_linear_1455_204)" stroke-width="5"/>
<defs>
<linearGradient id="paint0_linear_1455_204" x1="5.33337" y1="32.0003" x2="58.6667" y2="32.0003" gradientUnits="userSpaceOnUse">
<stop stop-color="#F1920C"/>
<stop offset="1" stop-color="#FFD700"/>
</linearGradient>
</defs>
</svg>
