<svg width="64" height="64" viewBox="0 0 64 64" fill="none" xmlns="http://www.w3.org/2000/svg">
<path d="M8.73337 40.7897C6.46671 37.8457 5.33337 36.371 5.33337 32.0003C5.33337 27.627 6.46671 26.1577 8.73337 23.211C13.2587 17.3337 20.848 10.667 32 10.667C43.152 10.667 50.7414 17.3337 55.2667 23.211C57.5334 26.1603 58.6667 27.6297 58.6667 32.0003C58.6667 36.3737 57.5334 37.843 55.2667 40.7897C50.7414 46.667 43.152 53.3337 32 53.3337C20.848 53.3337 13.2587 46.667 8.73337 40.7897Z" stroke="url(#paint0_linear_1455_707)" stroke-width="5"/>
<path d="M40 32C40 34.1217 39.1571 36.1566 37.6569 37.6569C36.1566 39.1571 34.1217 40 32 40C29.8783 40 27.8434 39.1571 26.3431 37.6569C24.8429 36.1566 24 34.1217 24 32C24 29.8783 24.8429 27.8434 26.3431 26.3431C27.8434 24.8429 29.8783 24 32 24C34.1217 24 36.1566 24.8429 37.6569 26.3431C39.1571 27.8434 40 29.8783 40 32Z" stroke="url(#paint1_linear_1455_707)" stroke-width="5"/>
<defs>
<linearGradient id="paint0_linear_1455_707" x1="5.33337" y1="32.0003" x2="58.6667" y2="32.0003" gradientUnits="userSpaceOnUse">
<stop stop-color="#F1920C"/>
<stop offset="1" stop-color="#FFD700"/>
</linearGradient>
<linearGradient id="paint1_linear_1455_707" x1="24" y1="32" x2="40" y2="32" gradientUnits="userSpaceOnUse">
<stop stop-color="#F1920C"/>
<stop offset="1" stop-color="#FFD700"/>
</linearGradient>
</defs>
</svg>
